 <svg  version="1.0" xmlns="http://www.w3.org/2000/svg"  width="300.000000pt" height="336.000000pt" viewBox="0 0 300.000000 336.000000"  preserveAspectRatio="xMidYMid meet">  <g transform="translate(0.000000,336.000000) scale(0.100000,-0.100000)" fill="#ffffff" stroke="none"> <path d="M1753 3156 c-25 -22 -25 -23 -8 -49 l17 -27 -41 15 c-120 42 -302 60 -446 45 -183 -20 -405 -87 -444 -134 -12 -15 -11 -21 8 -46 l22 -30 -35 0 c-45 0 -156 -24 -226 -48 -116 -40 -240 -118 -240 -150 0 -24 35 -61 74 -77 l30 -13 -44 -12 c-34 -9 -53 -9 -83 0 -56 17 -71 1 -64 -67 6 -54 11 -72 59 -212 16 -46 27 -85 25 -87 -2 -2 -14 7 -27 21 -29 31 -63 32 -79 2 -13 -25 12 -119 109 -407 48 -144 79 -265 69 -275 -3 -2 -20 1 -38 8 -38 14 -71 0 -105 -46 -31 -42 -29 -158 6 -254 26 -72 86 -172 138 -228 26 -27 29 -40 40 -153 21 -225 63 -316 220 -473 123 -123 323 -262 520 -360 174 -87 223 -99 403 -99 147 0 148 0 230 36 311 135 569 309 722 486 97 113 132 209 146 401 l9 128 41 42 c54 55 107 139 133 207 15 42 20 79 21 158 l0 104 -33 29 c-37 33 -60 36 -104 13 l-30 -16 7 44 c12 78 36 161 80 284 58 161 77 256 73 373 -2 76 -6 96 -20 105 -14 8 -23 5 -48 -19 l-30 -29 0 86 c0 136 -42 235 -147 348 -74 81 -88 88 -118 60 l-24 -23 -52 47 c-135 121 -323 220 -529 279 -133 38 -156 40 -187 13z m187 -44 c106 -31 225 -77 297 -118 88 -49 212 -143 255 -194 34 -39 87 -134 104 -185 3 -11 8 -15 10 -10 7 19 -31 150 -43 148 -7 -2 -10 4 -7 12 5 11 2 13 -12 8 -15 -6 -14 -2 6 27 l24 33 66 -70 c79 -82 125 -170 140 -265 11 -75 2 -171 -24 -232 -9 -21 -16 -41 -16 -44 0 -13 73 66 98 105 45 71 56 59 48 -54 -7 -118 -30 -215 -90 -388 -58 -166 -72 -237 -86 -420 -6 -82 -14 -153 -17 -158 -3 -6 -1 -7 5 -3 5 3 12 1 14 -6 2 -6 10 3 17 20 24 57 60 27 46 -37 -7 -35 -50 -84 -68 -78 -13 4 -14 31 -2 60 5 12 3 17 -9 17 -14 0 -16 -14 -16 -92 l1 -93 17 32 c9 17 36 59 59 93 24 34 50 85 58 114 21 69 29 157 15 176 -9 13 -17 8 -50 -30 -33 -37 -42 -42 -50 -30 -15 22 -12 39 11 76 41 67 89 81 128 40 31 -33 36 -93 17 -186 -22 -103 -60 -174 -134 -250 l-64 -65 -4 -107 c-7 -213 -45 -315 -162 -440 -165 -175 -402 -330 -696 -455 -88 -37 -92 -38 -215 -38 -149 0 -215 18 -381 100 -218 108 -394 229 -525 360 -150 150 -185 229 -206 457 l-12 131 -44 45 c-126 129 -193 373 -123 447 13 14 33 25 45 25 48 0 105 -70 105 -129 0 -47 -16 -45 -50 4 -47 68 -65 59 -64 -30 2 -93 34 -177 90 -233 23 -24 45 -49 48 -55 2 -7 5 0 5 15 1 19 -7 31 -33 46 -41 24 -64 79 -46 112 15 28 29 25 40 -7 6 -16 15 -36 20 -45 6 -10 10 -27 10 -38 0 -12 4 -19 8 -16 10 6 8 68 -2 84 -3 5 -10 70 -15 144 -13 177 -28 243 -111 498 -86 262 -104 330 -92 342 6 6 18 -2 33 -19 28 -32 122 -113 132 -113 4 0 -7 28 -24 62 -18 35 -43 92 -56 127 -29 78 -76 261 -69 268 3 3 19 0 36 -7 42 -17 103 -6 189 35 39 19 71 36 71 37 0 2 -30 3 -67 3 -54 0 -76 5 -106 24 -37 23 -37 24 -20 43 9 11 62 42 118 69 164 82 362 109 529 74 74 -16 95 -14 49 3 -15 6 -75 29 -133 51 -57 21 -106 43 -107 48 -5 14 143 70 244 93 141 31 278 41 393 30 108 -12 242 -46 328 -85 28 -13 52 -21 52 -17 0 4 -25 33 -55 65 -30 33 -55 60 -55 62 0 2 8 5 18 7 22 5 69 -4 162 -30z m-1490 -1733 c0 -13 -49 -39 -55 -29 -3 5 -9 33 -12 62 l-6 53 36 -40 c20 -22 36 -43 37 -46z m2350 34 c-3 -27 -8 -46 -12 -45 -4 2 -17 6 -28 9 -11 3 -20 10 -20 15 0 10 49 64 60 67 3 0 3 -20 0 -46z"/> <path d="M1880 2976 c0 -2 7 -7 16 -10 8 -3 12 -2 9 4 -6 10 -25 14 -25 6z"/> <path d="M1178 2833 c7 -3 16 -2 19 1 4 3 -2 6 -13 5 -11 0 -14 -3 -6 -6z"/> <path d="M1690 2807 c0 -3 24 -23 53 -45 39 -29 58 -38 68 -31 12 8 11 9 -1 7 -9 -2 -34 11 -55 28 -45 35 -65 47 -65 41z"/> <path d="M1831 2757 c2 -1 13 -9 24 -17 19 -14 19 -14 6 3 -7 9 -18 17 -24 17 -6 0 -8 -1 -6 -3z"/> <path d="M979 2685 c41 -20 76 -34 78 -32 4 5 -130 67 -143 67 -5 -1 24 -16 65 -35z"/> <path d="M1909 2639 c46 -46 103 -112 128 -146 48 -67 113 -187 113 -207 0 -23 -187 -96 -295 -115 -63 -11 -173 -17 -178 -10 -2 2 -16 27 -32 54 -95 167 -253 308 -460 410 -105 52 -104 38 1 -16 160 -83 331 -231 428 -372 49 -71 44 -87 -26 -87 -142 0 -354 48 -518 117 -94 40 -219 118 -294 184 -74 66 -38 12 41 -61 37 -34 80 -69 95 -78 16 -9 28 -19 28 -23 0 -3 -27 -23 -60 -43 -74 -46 -94 -73 -131 -183 -16 -48 -54 -140 -84 -205 -84 -177 -99 -297 -75 -585 7 -93 14 -121 39 -170 41 -81 72 -121 139 -176 84 -70 163 -107 229 -107 63 0 95 12 198 75 41 25 98 54 126 65 62 25 162 26 234 4 48 -16 56 -16 100 0 28 9 79 16 119 16 85 -1 146 -23 259 -98 111 -73 174 -79 275 -28 119 61 214 167 268 296 35 87 52 312 37 493 -10 116 -12 126 -56 213 -61 120 -74 176 -53 247 9 29 27 70 41 91 32 48 32 56 -2 24 -36 -32 -123 -79 -134 -72 -5 3 -9 13 -9 23 0 27 -39 72 -76 87 -19 8 -63 14 -99 14 -59 0 -65 2 -65 20 0 69 -123 255 -234 356 -98 89 -109 84 -17 -7z m-649 -472 c146 -41 223 -49 407 -44 188 6 266 21 405 82 93 40 170 46 239 19 33 -14 45 -26 60 -61 22 -51 37 -60 76 -40 l28 15 0 -92 c0 -82 3 -97 33 -157 17 -37 32 -70 32 -73 0 -3 -15 -6 -34 -6 -50 0 -67 -31 -65 -125 1 -42 -1 -79 -5 -82 -3 -4 -6 34 -6 84 0 77 3 92 20 108 11 10 22 26 25 36 10 31 -31 85 -83 111 l-47 23 -745 0 -745 0 -41 -22 c-51 -27 -94 -77 -94 -108 0 -16 -7 -24 -25 -27 -14 -3 -25 -3 -25 -1 0 2 15 34 34 71 18 37 49 111 67 166 35 104 31 98 161 207 l31 26 101 -42 c56 -23 144 -54 196 -68z m1122 -254 c50 -23 73 -52 63 -82 -10 -34 -46 -34 -75 0 -33 40 -76 49 -240 49 -188 0 -255 -12 -348 -60 l-77 -40 101 0 102 0 4 -32 c7 -64 3 -67 -75 -70 l-72 -3 0 -60 0 -60 60 -5 60 -5 3 -40 c4 -50 -15 -65 -80 -65 l-48 0 2 -60 2 -59 71 -3 70 -3 0 -55 0 -55 -125 0 -125 0 -3 280 -2 280 -49 12 c-26 6 -93 31 -147 55 l-99 43 -210 0 c-115 0 -227 -4 -248 -8 -20 -4 -53 -22 -73 -39 l-35 -31 -21 21 c-26 25 -20 42 28 78 l37 29 411 5 c226 3 564 5 751 4 321 -1 343 -2 387 -21z m-997 -94 c10 -10 -33 -13 -141 -9 -96 3 -105 -11 -103 -151 0 -55 -2 -103 -5 -106 -3 -4 -6 45 -6 107 0 140 -6 150 -91 150 -48 0 -60 -4 -73 -21 l-15 -22 -27 22 c-15 11 -33 21 -40 21 -12 0 -20 16 -11 22 1 0 94 4 207 7 195 6 283 0 305 -20z m951 0 c3 -5 -8 -9 -24 -9 -16 0 -37 -9 -47 -19 -17 -20 -17 -20 -47 2 -26 19 -42 22 -126 22 -78 0 -102 -4 -125 -19 -24 -17 -29 -17 -45 -4 -9 8 -26 18 -36 22 -42 15 5 21 192 26 186 5 245 0 258 -21z m-1412 -64 c25 -23 27 -31 24 -87 l-3 -63 -50 0 c-47 0 -50 1 -55 30 -4 24 -11 30 -40 36 -19 4 -37 6 -40 4 -3 -2 -4 -30 -2 -63 l4 -60 61 -13 c46 -9 70 -21 95 -45 l32 -32 0 -107 c0 -105 0 -107 -30 -137 l-30 -30 -104 4 c-126 4 -141 13 -152 95 -8 66 1 78 69 87 35 6 47 4 48 -6 1 -7 2 -24 2 -38 2 -22 7 -25 37 -25 l35 0 3 52 c3 57 8 53 -88 73 -97 19 -110 39 -110 177 0 109 10 145 44 161 11 6 66 11 122 11 94 1 103 -1 128 -24z m178 -207 l3 -233 32 -3 33 -3 2 233 3 233 58 3 57 3 0 -258 c0 -287 -1 -292 -66 -319 -40 -17 -163 -19 -197 -3 -14 6 -30 22 -36 36 -12 26 -16 525 -4 536 3 4 30 7 59 7 l54 0 2 -232z m499 203 c16 -20 19 -40 19 -143 0 -115 -1 -120 -26 -145 l-26 -26 32 -109 c17 -60 28 -113 25 -118 -7 -12 -112 -13 -119 -2 -3 5 -14 52 -25 106 -11 53 -24 103 -28 109 -5 7 -10 -40 -13 -103 l-5 -115 -55 0 -55 0 -3 275 c-1 151 0 281 3 288 4 11 32 13 131 10 118 -3 127 -4 145 -27z m614 15 c13 -9 21 -31 25 -70 8 -75 0 -86 -60 -86 -48 0 -49 1 -52 33 -3 28 -6 32 -33 32 -29 0 -30 -2 -33 -52 l-3 -52 69 -21 c101 -31 117 -51 119 -154 4 -173 -14 -196 -157 -196 -83 0 -101 3 -124 21 -24 19 -26 27 -26 90 0 78 4 82 74 83 40 1 41 0 46 -39 5 -37 8 -40 35 -40 30 0 30 1 30 54 0 60 4 55 -93 97 -82 35 -92 55 -92 178 0 90 1 95 26 115 23 18 41 21 128 21 71 0 108 -4 121 -14z m183 -91 l-3 -105 25 0 c44 0 49 11 52 110 l3 95 55 0 55 0 3 -278 2 -277 -26 -10 c-14 -6 -38 -8 -53 -6 -14 2 -29 5 -33 5 -5 1 -8 54 -8 120 l0 118 -32 -6 -33 -7 -3 -104 c-2 -84 -6 -107 -19 -117 -23 -17 -88 -16 -102 1 -12 14 -16 496 -4 544 5 20 11 22 65 22 l59 0 -3 -105z m-488 -71 c0 -45 0 -45 -22 -30 -12 9 -37 16 -55 16 -28 0 -33 3 -33 24 0 23 4 25 53 29 28 2 53 4 55 5 1 1 2 -19 2 -44z m-1089 1 c9 -19 13 -35 9 -35 -26 0 -40 15 -40 41 0 38 11 36 31 -6z m1292 -2 c7 -9 5 -13 -7 -13 -11 0 -16 8 -15 28 0 15 3 21 6 12 3 -8 10 -21 16 -27z m127 -43 l0 -29 -29 17 -30 17 27 11 c15 7 28 13 30 13 1 1 2 -12 2 -29z m-1290 -17 l0 -36 -22 20 c-13 11 -32 24 -43 28 -17 7 -13 10 20 15 22 4 41 8 43 9 1 0 2 -16 2 -36z m1030 -90 l31 -20 -42 -12 c-31 -9 -44 -20 -52 -42 -11 -27 -15 -29 -64 -29 -52 0 -53 0 -53 30 0 27 3 30 33 30 48 0 74 23 82 72 l7 42 14 -26 c7 -14 27 -34 44 -45z m-1310 -36 c23 -16 23 -17 3 -17 -11 0 -26 -7 -33 -15 -22 -26 -30 -16 -30 38 1 50 1 51 18 32 9 -11 28 -28 42 -38z m950 -4 c-1 -24 -2 -26 -11 -10 -5 9 -7 22 -4 27 10 17 15 11 15 -17z m480 -44 c0 -18 -4 -28 -10 -24 -5 3 -10 20 -10 36 0 18 4 28 10 24 6 -3 10 -20 10 -36z m362 -176 c14 -15 33 -23 55 -23 18 0 33 -2 33 -5 0 -11 -43 -91 -72 -132 -53 -78 -189 -168 -271 -179 -52 -7 -92 8 -197 75 -41 27 -98 56 -125 66 -67 22 -168 23 -228 1 -46 -16 -51 -16 -100 0 -68 23 -159 23 -226 0 -29 -10 -100 -46 -158 -79 -140 -81 -183 -86 -288 -32 -94 47 -183 132 -224 213 -17 34 -31 71 -31 82 l0 21 28 -21 c60 -44 218 -38 274 10 l33 29 28 -27 c26 -25 36 -27 125 -30 91 -3 99 -2 136 23 38 26 38 26 53 6 11 -17 25 -21 73 -21 54 0 61 2 73 27 l14 26 17 -25 17 -26 196 -1 c160 -1 201 2 220 14 21 14 26 14 50 -2 21 -14 48 -18 122 -18 83 0 100 3 127 22 31 22 31 22 49 3 14 -15 31 -20 70 -20 72 0 89 20 92 108 4 119 7 129 10 32 3 -80 7 -98 25 -117z m-1664 163 c4 -35 -14 -26 -20 9 -4 16 -1 24 6 22 6 -2 12 -16 14 -31z"/> <path d="M1490 1876 c0 -2 32 -15 71 -31 l71 -28 57 23 c31 13 60 27 66 32 6 5 -47 8 -128 7 -75 0 -137 -2 -137 -3z"/> <path d="M1688 1763 c7 -3 16 -2 19 1 4 3 -2 6 -13 5 -11 0 -14 -3 -6 -6z"/> <path d="M1440 1605 c0 -67 2 -75 19 -75 45 0 51 10 51 75 0 65 -6 75 -51 75 -17 0 -19 -8 -19 -75z m37 -27 c-2 -13 -4 -3 -4 22 0 25 2 35 4 23 2 -13 2 -33 0 -45z"/> <path d="M1070 2646 c0 -3 9 -10 20 -16 11 -6 20 -8 20 -6 0 3 -9 10 -20 16 -11 6 -20 8 -20 6z"/> <path d="M685 2520 c9 -16 18 -30 21 -30 2 0 -2 14 -11 30 -9 17 -18 30 -21 30 -2 0 2 -13 11 -30z"/> <path d="M457 2119 c7 -7 15 -10 18 -7 3 3 -2 9 -12 12 -14 6 -15 5 -6 -5z"/> <path d="M695 950 c27 -27 51 -50 54 -50 3 0 -17 23 -44 50 -27 28 -51 50 -54 50 -3 0 17 -22 44 -50z"/> <path d="M1438 953 c6 -2 18 -2 25 0 6 3 1 5 -13 5 -14 0 -19 -2 -12 -5z"/> <path d="M1748 953 c6 -2 18 -2 25 0 6 3 1 5 -13 5 -14 0 -19 -2 -12 -5z"/> <path d="M968 783 c6 -2 18 -2 25 0 6 3 1 5 -13 5 -14 0 -19 -2 -12 -5z"/> <path d="M1370 728 c-48 -12 -99 -18 -142 -16 -38 2 -68 2 -68 1 0 -17 37 -84 58 -106 59 -63 106 -70 229 -35 99 28 209 28 320 0 66 -16 91 -18 120 -10 58 15 103 63 133 142 l9 25 -67 -6 c-43 -3 -96 0 -147 10 -115 23 -346 20 -445 -5z m440 -27 c19 -7 65 -12 103 -13 37 0 67 -4 67 -9 0 -5 -15 -25 -33 -45 -42 -46 -90 -53 -189 -28 -101 25 -222 24 -319 -4 -41 -12 -90 -22 -108 -22 -41 0 -83 24 -105 60 l-16 28 53 6 c28 4 86 15 127 25 58 14 110 17 230 15 85 -1 171 -7 190 -13z"/> </g> </svg> 